<svg xmlns="http://www.w3.org/2000/svg" width="32" height="32" viewBox="0 0 32 32" fill="none">
                            <path d="M11.3129 3.43872H23.496C28.1372 3.43872 31.9082 7.11542 31.9082 11.6406V23.5191C31.9082 25.6944 31.0219 27.7806 29.4443 29.3187C27.8668 30.8569 25.7271 31.721 23.496 31.721H11.3129C6.67173 31.721 2.90076 28.0443 2.90076 23.5191V11.6406C2.90076 9.46531 3.78704 7.37914 5.36462 5.84099C6.94221 4.30284 9.08187 3.43872 11.3129 3.43872ZM11.0228 6.26695C9.63806 6.26695 8.30999 6.8033 7.3308 7.75801C6.35161 8.71272 5.8015 10.0076 5.8015 11.3578V23.802C5.8015 26.616 8.1366 28.8928 11.0228 28.8928H23.7861C25.1709 28.8928 26.499 28.3564 27.4782 27.4017C28.4574 26.447 29.0075 25.1521 29.0075 23.802V11.3578C29.0075 8.54367 26.6724 6.26695 23.7861 6.26695H11.0228ZM25.0189 8.38812C25.4998 8.38812 25.9609 8.57435 26.3009 8.90585C26.6409 9.23734 26.8319 9.68695 26.8319 10.1558C26.8319 10.6246 26.6409 11.0742 26.3009 11.4057C25.9609 11.7372 25.4998 11.9234 25.0189 11.9234C24.5381 11.9234 24.077 11.7372 23.737 11.4057C23.397 11.0742 23.206 10.6246 23.206 10.1558C23.206 9.68695 23.397 9.23734 23.737 8.90585C24.077 8.57435 24.5381 8.38812 25.0189 8.38812ZM17.4045 10.5093C19.3278 10.5093 21.1723 11.2542 22.5323 12.5802C23.8923 13.9062 24.6563 15.7046 24.6563 17.5799C24.6563 19.4551 23.8923 21.2535 22.5323 22.5795C21.1723 23.9055 19.3278 24.6504 17.4045 24.6504C15.4812 24.6504 13.6366 23.9055 12.2766 22.5795C10.9167 21.2535 10.1526 19.4551 10.1526 17.5799C10.1526 15.7046 10.9167 13.9062 12.2766 12.5802C13.6366 11.2542 15.4812 10.5093 17.4045 10.5093ZM17.4045 13.3375C16.2505 13.3375 15.1438 13.7845 14.3278 14.5801C13.5118 15.3757 13.0534 16.4547 13.0534 17.5799C13.0534 18.705 13.5118 19.784 14.3278 20.5796C15.1438 21.3752 16.2505 21.8222 17.4045 21.8222C18.5585 21.8222 19.6652 21.3752 20.4812 20.5796C21.2972 19.784 21.7556 18.705 21.7556 17.5799C21.7556 16.4547 21.2972 15.3757 20.4812 14.5801C19.6652 13.7845 18.5585 13.3375 17.4045 13.3375Z" fill="white"/>
                        </svg>